<?xml version="1.0" encoding="UTF-8"?>
<svg width="1180px" height="500px" viewBox="0 0 1180 500" version="1.1" xmlns="http://www.w3.org/2000/svg" xmlns:xlink="http://www.w3.org/1999/xlink">
    <!-- Generator: Sketch 53.1 (72631) - https://sketchapp.com -->
    <title>Artboard Copy</title>
    <desc>Created with Sketch.</desc>
    <g id="Artboard-Copy" stroke="none" stroke-width="1" fill="none" fill-rule="evenodd">
        <g id="icons8-student-center" transform="translate(168.000000, 84.000000)" fill="#4E49C3" fill-rule="nonzero">
            <path d="M88.7445495,0.00173066195 C87.9628737,-0.0159214951 87.184001,0.101572879 86.4420258,0.349070555 L4.66900884,27.7087936 C2.3573331,28.4814022 0.63206721,30.4334398 0.143347543,32.8293153 C-0.345372124,35.2251907 0.476736019,37.7007494 2.29987486,39.3231203 C4.1230137,40.9454913 6.6700803,41.4680866 8.98125703,40.6939754 L88.5981485,14.0556509 L168.215041,40.6939754 C170.526105,41.4676703 173.072842,40.9448817 174.895724,39.3225797 C176.718605,37.7002778 177.540623,35.2249894 177.052067,32.8293245 C176.563511,30.4336596 174.838624,28.4816663 172.527287,27.7087936 L90.7542712,0.349070555 C90.1055111,0.132772377 89.4280208,0.0156818378 88.7445495,0.00173066195 Z M88.7445495,47.8812461 C87.9628738,47.8635935 87.1840011,47.9810874 86.4420258,48.2285846 L4.66900884,75.5883077 C1.88149758,76.5166164 0,79.132974 0,82.0808999 C0,85.0288259 1.88149758,87.6451835 4.66900884,88.5734922 L86.4420258,115.933215 C87.841551,116.401711 89.354746,116.401711 90.7542712,115.933215 L163.556746,91.5793203 L163.556746,131.857429 C159.497847,134.225885 156.742328,138.585937 156.742328,143.640277 C156.742328,151.1984 170.371164,171 170.371164,171 C170.371164,171 184,151.1984 184,143.640277 C184,138.585937 181.244481,134.225885 177.185582,131.857429 L177.185582,82.4282385 C177.188511,82.3124776 177.188511,82.1966608 177.185582,82.0808999 C177.184367,81.8935842 177.175487,81.7063977 177.158965,81.5198136 C177.159316,81.4797369 177.159316,81.4396579 177.158965,81.3995813 C177.148384,81.2879406 177.135069,81.1765779 177.119032,81.0655943 C177.114811,81.0343944 177.110374,81.0032241 177.105724,80.9720856 C177.074002,80.7789699 177.034037,80.5873097 176.98594,80.397634 C176.351791,77.7442109 174.20723,75.7228763 171.529084,75.2543276 L90.7542712,48.2285846 C90.105511,48.0122869 89.4280207,47.8951968 88.7445495,47.8812461 Z M40.8972228,115.104941 L40.8972228,136.800346 C40.8972228,136.800346 51.841178,150.480208 88.5981485,150.480208 C125.355119,150.480208 136.299074,136.800346 136.299074,136.800346 L136.299074,115.104941 L95.0665235,128.905035 C92.9676828,129.602707 90.7787623,129.960415 88.5981485,129.960415 C86.4175348,129.960415 84.2286142,129.602707 82.1297735,128.905035 L40.8972228,115.104941 Z" id="Shape"></path>
        </g>
        <path d="M176,255 L345,255 C350.522847,255 355,259.477153 355,265 L355,371.903587 C355,378.725201 351.523084,385.076366 345.776417,388.751994 L271.276417,436.402972 C264.7066,440.605096 256.2934,440.605096 249.723583,436.402972 L175.223583,388.751994 C169.476916,385.076366 166,378.725201 166,371.903587 L166,265 C166,259.477153 170.477153,255 176,255 Z" id="Rectangle" fill-opacity="0.712194056" fill="#0700AB"></path>
        <text id="Students-Pocket" font-family="Roboto-Medium, Roboto" font-size="160" font-weight="400" fill="#000000">
            <tspan x="408" y="217">Students</tspan>
            <tspan x="408" y="404">Pocket</tspan>
        </text>
        <circle id="Oval" fill="#4E49C3" cx="942" cy="386" r="17"></circle>
    </g>
</svg>